<?xml version="1.0" standalone="no"?>
<!DOCTYPE svg PUBLIC "-//W3C//DTD SVG 1.1//EN" "http://www.w3.org/Graphics/SVG/1.1/DTD/svg11.dtd">
<svg width="145mm" height="671mm" viewBox="0 -671 145 671" xmlns="http://www.w3.org/2000/svg" version="1.1">
<title>OpenSCAD Model</title>
<path d="
M 78.9,-565 L 78.9,-565.9 L 76.2,-565.9 L 76.2,-578 L 79.8,-578 L 76.2,-584
 L 69.1812,-584 L 69.1812,-581.35 L 69.1801,-581.34 L 69.1768,-581.33 L 69.1716,-581.321 L 69.1646,-581.313
 L 69.1561,-581.307 L 69.1466,-581.302 L 69.1364,-581.3 L 69.1259,-581.3 L 69.1157,-581.302 L 69.1062,-581.307
 L 69.0977,-581.313 L 69.0907,-581.321 L 69.0855,-581.33 L 69.0822,-581.34 L 69.0811,-581.35 L 69.0811,-584
 L 67.1335,-584 L 67.1335,-581.35 L 67.1324,-581.34 L 67.1291,-581.33 L 67.1239,-581.321 L 67.1169,-581.313
 L 67.1085,-581.307 L 67.0989,-581.302 L 67.0887,-581.3 L 67.0782,-581.3 L 67.068,-581.302 L 67.0585,-581.307
 L 67.05,-581.313 L 67.043,-581.321 L 67.0378,-581.33 L 67.0345,-581.34 L 67.0335,-581.35 L 67.0335,-584
 L 65.0858,-584 L 65.0858,-581.35 L 65.0847,-581.34 L 65.0814,-581.33 L 65.0762,-581.321 L 65.0692,-581.313
 L 65.0608,-581.307 L 65.0512,-581.302 L 65.041,-581.3 L 65.0305,-581.3 L 65.0203,-581.302 L 65.0108,-581.307
 L 65.0023,-581.313 L 64.9953,-581.321 L 64.9901,-581.33 L 64.9869,-581.34 L 64.9858,-581.35 L 64.9858,-584
 L 63.0381,-584 L 63.0381,-581.35 L 63.037,-581.34 L 63.0338,-581.33 L 63.0285,-581.321 L 63.0215,-581.313
 L 63.0131,-581.307 L 63.0035,-581.302 L 62.9933,-581.3 L 62.9828,-581.3 L 62.9726,-581.302 L 62.9631,-581.307
 L 62.9546,-581.313 L 62.9476,-581.321 L 62.9424,-581.33 L 62.9392,-581.34 L 62.9381,-581.35 L 62.9381,-584
 L 60.9904,-584 L 60.9904,-581.35 L 60.9893,-581.34 L 60.9861,-581.33 L 60.9808,-581.321 L 60.9738,-581.313
 L 60.9654,-581.307 L 60.9558,-581.302 L 60.9456,-581.3 L 60.9352,-581.3 L 60.9249,-581.302 L 60.9154,-581.307
 L 60.9069,-581.313 L 60.8999,-581.321 L 60.8947,-581.33 L 60.8915,-581.34 L 60.8904,-581.35 L 60.8904,-584
 L 58.9427,-584 L 58.9427,-581.35 L 58.9416,-581.34 L 58.9384,-581.33 L 58.9331,-581.321 L 58.9261,-581.313
 L 58.9177,-581.307 L 58.9081,-581.302 L 58.8979,-581.3 L 58.8875,-581.3 L 58.8772,-581.302 L 58.8677,-581.307
 L 58.8592,-581.313 L 58.8522,-581.321 L 58.847,-581.33 L 58.8438,-581.34 L 58.8427,-581.35 L 58.8427,-584
 L 58.2,-584 L 58.2,-584.1 L 78,-584.1 L 81.6,-577.9 L 78,-577.9 L 78,-566
 L 84,-566 L 84,-572 L 94,-572 L 94,-671 L 0,-671 L 0,-572
 L 58.8427,-572 L 58.8427,-574.65 L 58.8438,-574.66 L 58.847,-574.67 L 58.8522,-574.679 L 58.8592,-574.687
 L 58.8677,-574.693 L 58.8772,-574.698 L 58.8875,-574.7 L 58.8979,-574.7 L 58.9081,-574.698 L 58.9177,-574.693
 L 58.9261,-574.687 L 58.9331,-574.679 L 58.9384,-574.67 L 58.9416,-574.66 L 58.9427,-574.65 L 58.9427,-572
 L 60.8904,-572 L 60.8904,-574.65 L 60.8915,-574.66 L 60.8947,-574.67 L 60.8999,-574.679 L 60.9069,-574.687
 L 60.9154,-574.693 L 60.9249,-574.698 L 60.9352,-574.7 L 60.9456,-574.7 L 60.9558,-574.698 L 60.9654,-574.693
 L 60.9738,-574.687 L 60.9808,-574.679 L 60.9861,-574.67 L 60.9893,-574.66 L 60.9904,-574.65 L 60.9904,-572
 L 62.9381,-572 L 62.9381,-574.65 L 62.9392,-574.66 L 62.9424,-574.67 L 62.9476,-574.679 L 62.9546,-574.687
 L 62.9631,-574.693 L 62.9726,-574.698 L 62.9828,-574.7 L 62.9933,-574.7 L 63.0035,-574.698 L 63.0131,-574.693
 L 63.0215,-574.687 L 63.0285,-574.679 L 63.0338,-574.67 L 63.037,-574.66 L 63.0381,-574.65 L 63.0381,-572
 L 64.9858,-572 L 64.9858,-574.65 L 64.9869,-574.66 L 64.9901,-574.67 L 64.9953,-574.679 L 65.0023,-574.687
 L 65.0108,-574.693 L 65.0203,-574.698 L 65.0305,-574.7 L 65.041,-574.7 L 65.0512,-574.698 L 65.0608,-574.693
 L 65.0692,-574.687 L 65.0762,-574.679 L 65.0814,-574.67 L 65.0847,-574.66 L 65.0858,-574.65 L 65.0858,-572
 L 67.0335,-572 L 67.0335,-574.65 L 67.0345,-574.66 L 67.0378,-574.67 L 67.043,-574.679 L 67.05,-574.687
 L 67.0585,-574.693 L 67.068,-574.698 L 67.0782,-574.7 L 67.0887,-574.7 L 67.0989,-574.698 L 67.1085,-574.693
 L 67.1169,-574.687 L 67.1239,-574.679 L 67.1291,-574.67 L 67.1324,-574.66 L 67.1335,-574.65 L 67.1335,-572
 L 69.0811,-572 L 69.0811,-574.65 L 69.0822,-574.66 L 69.0855,-574.67 L 69.0907,-574.679 L 69.0977,-574.687
 L 69.1062,-574.693 L 69.1157,-574.698 L 69.1259,-574.7 L 69.1364,-574.7 L 69.1466,-574.698 L 69.1561,-574.693
 L 69.1646,-574.687 L 69.1716,-574.679 L 69.1768,-574.67 L 69.1801,-574.66 L 69.1812,-574.65 L 69.1812,-572
 L 70.2,-572 L 70.2,-566 L 68.4,-566 L 68.4,-565 L 70.2,-564 L 76.2,-564
 z
M 61.959,-578.6 L 61.9488,-578.602 L 61.9392,-578.607 L 61.9308,-578.613 L 61.9238,-578.621 L 61.9185,-578.63
 L 61.9153,-578.64 L 61.9142,-578.65 L 61.9142,-582.75 L 61.9153,-582.76 L 61.9185,-582.77 L 61.9238,-582.779
 L 61.9308,-582.787 L 61.9392,-582.793 L 61.9488,-582.798 L 61.959,-582.8 L 61.9695,-582.8 L 61.9797,-582.798
 L 61.9892,-582.793 L 61.9977,-582.787 L 62.0047,-582.779 L 62.0099,-582.77 L 62.0131,-582.76 L 62.0142,-582.75
 L 62.0142,-578.65 L 62.0131,-578.64 L 62.0099,-578.63 L 62.0047,-578.621 L 61.9977,-578.613 L 61.9892,-578.607
 L 61.9797,-578.602 L 61.9695,-578.6 z
M 70.1498,-578.6 L 70.1395,-578.602 L 70.13,-578.607 L 70.1215,-578.613 L 70.1145,-578.621 L 70.1093,-578.63
 L 70.1061,-578.64 L 70.105,-578.65 L 70.105,-582.75 L 70.1061,-582.76 L 70.1093,-582.77 L 70.1145,-582.779
 L 70.1215,-582.787 L 70.13,-582.793 L 70.1395,-582.798 L 70.1498,-582.8 L 70.1602,-582.8 L 70.1704,-582.798
 L 70.18,-582.793 L 70.1884,-582.787 L 70.1954,-582.779 L 70.2,-582.771 L 70.2,-578.629 L 70.1954,-578.621
 L 70.1884,-578.613 L 70.18,-578.607 L 70.1704,-578.602 L 70.1602,-578.6 z
M 59.9113,-578.6 L 59.9011,-578.602 L 59.8915,-578.607 L 59.8831,-578.613 L 59.8761,-578.621 L 59.8708,-578.63
 L 59.8676,-578.64 L 59.8665,-578.65 L 59.8665,-582.75 L 59.8676,-582.76 L 59.8708,-582.77 L 59.8761,-582.779
 L 59.8831,-582.787 L 59.8915,-582.793 L 59.9011,-582.798 L 59.9113,-582.8 L 59.9218,-582.8 L 59.932,-582.798
 L 59.9415,-582.793 L 59.95,-582.787 L 59.957,-582.779 L 59.9622,-582.77 L 59.9654,-582.76 L 59.9665,-582.75
 L 59.9665,-578.65 L 59.9654,-578.64 L 59.9622,-578.63 L 59.957,-578.621 L 59.95,-578.613 L 59.9415,-578.607
 L 59.932,-578.602 L 59.9218,-578.6 z
M 68.1021,-578.6 L 68.0919,-578.602 L 68.0823,-578.607 L 68.0739,-578.613 L 68.0668,-578.621 L 68.0616,-578.63
 L 68.0584,-578.64 L 68.0573,-578.65 L 68.0573,-582.75 L 68.0584,-582.76 L 68.0616,-582.77 L 68.0668,-582.779
 L 68.0739,-582.787 L 68.0823,-582.793 L 68.0919,-582.798 L 68.1021,-582.8 L 68.1125,-582.8 L 68.1228,-582.798
 L 68.1323,-582.793 L 68.1408,-582.787 L 68.1478,-582.779 L 68.153,-582.77 L 68.1562,-582.76 L 68.1573,-582.75
 L 68.1573,-578.65 L 68.1562,-578.64 L 68.153,-578.63 L 68.1478,-578.621 L 68.1408,-578.613 L 68.1323,-578.607
 L 68.1228,-578.602 L 68.1125,-578.6 z
M 64.0067,-578.6 L 63.9965,-578.602 L 63.9869,-578.607 L 63.9785,-578.613 L 63.9715,-578.621 L 63.9662,-578.63
 L 63.963,-578.64 L 63.9619,-578.65 L 63.9619,-582.75 L 63.963,-582.76 L 63.9662,-582.77 L 63.9715,-582.779
 L 63.9785,-582.787 L 63.9869,-582.793 L 63.9965,-582.798 L 64.0067,-582.8 L 64.0172,-582.8 L 64.0274,-582.798
 L 64.0369,-582.793 L 64.0454,-582.787 L 64.0524,-582.779 L 64.0576,-582.77 L 64.0608,-582.76 L 64.0619,-582.75
 L 64.0619,-578.65 L 64.0608,-578.64 L 64.0576,-578.63 L 64.0524,-578.621 L 64.0454,-578.613 L 64.0369,-578.607
 L 64.0274,-578.602 L 64.0172,-578.6 z
M 66.0544,-578.6 L 66.0442,-578.602 L 66.0346,-578.607 L 66.0262,-578.613 L 66.0192,-578.621 L 66.0139,-578.63
 L 66.0107,-578.64 L 66.0096,-578.65 L 66.0096,-582.75 L 66.0107,-582.76 L 66.0139,-582.77 L 66.0192,-582.779
 L 66.0262,-582.787 L 66.0346,-582.793 L 66.0442,-582.798 L 66.0544,-582.8 L 66.0648,-582.8 L 66.0751,-582.798
 L 66.0846,-582.793 L 66.0931,-582.787 L 66.1001,-582.779 L 66.1053,-582.77 L 66.1085,-582.76 L 66.1096,-582.75
 L 66.1096,-578.65 L 66.1085,-578.64 L 66.1053,-578.63 L 66.1001,-578.621 L 66.0931,-578.613 L 66.0846,-578.607
 L 66.0751,-578.602 L 66.0648,-578.6 z
M 58.8875,-575.9 L 58.8772,-575.902 L 58.8677,-575.907 L 58.8592,-575.913 L 58.8522,-575.921 L 58.847,-575.93
 L 58.8438,-575.94 L 58.8427,-575.95 L 58.8427,-580.05 L 58.8438,-580.06 L 58.847,-580.07 L 58.8522,-580.079
 L 58.8592,-580.087 L 58.8677,-580.093 L 58.8772,-580.098 L 58.8875,-580.1 L 58.8979,-580.1 L 58.9081,-580.098
 L 58.9177,-580.093 L 58.9261,-580.087 L 58.9331,-580.079 L 58.9384,-580.07 L 58.9416,-580.06 L 58.9427,-580.05
 L 58.9427,-575.95 L 58.9416,-575.94 L 58.9384,-575.93 L 58.9331,-575.921 L 58.9261,-575.913 L 58.9177,-575.907
 L 58.9081,-575.902 L 58.8979,-575.9 z
M 60.9352,-575.9 L 60.9249,-575.902 L 60.9154,-575.907 L 60.9069,-575.913 L 60.8999,-575.921 L 60.8947,-575.93
 L 60.8915,-575.94 L 60.8904,-575.95 L 60.8904,-580.05 L 60.8915,-580.06 L 60.8947,-580.07 L 60.8999,-580.079
 L 60.9069,-580.087 L 60.9154,-580.093 L 60.9249,-580.098 L 60.9352,-580.1 L 60.9456,-580.1 L 60.9558,-580.098
 L 60.9654,-580.093 L 60.9738,-580.087 L 60.9808,-580.079 L 60.9861,-580.07 L 60.9893,-580.06 L 60.9904,-580.05
 L 60.9904,-575.95 L 60.9893,-575.94 L 60.9861,-575.93 L 60.9808,-575.921 L 60.9738,-575.913 L 60.9654,-575.907
 L 60.9558,-575.902 L 60.9456,-575.9 z
M 62.9828,-575.9 L 62.9726,-575.902 L 62.9631,-575.907 L 62.9546,-575.913 L 62.9476,-575.921 L 62.9424,-575.93
 L 62.9392,-575.94 L 62.9381,-575.95 L 62.9381,-580.05 L 62.9392,-580.06 L 62.9424,-580.07 L 62.9476,-580.079
 L 62.9546,-580.087 L 62.9631,-580.093 L 62.9726,-580.098 L 62.9828,-580.1 L 62.9933,-580.1 L 63.0035,-580.098
 L 63.0131,-580.093 L 63.0215,-580.087 L 63.0285,-580.079 L 63.0338,-580.07 L 63.037,-580.06 L 63.0381,-580.05
 L 63.0381,-575.95 L 63.037,-575.94 L 63.0338,-575.93 L 63.0285,-575.921 L 63.0215,-575.913 L 63.0131,-575.907
 L 63.0035,-575.902 L 62.9933,-575.9 z
M 69.1259,-575.9 L 69.1157,-575.902 L 69.1062,-575.907 L 69.0977,-575.913 L 69.0907,-575.921 L 69.0855,-575.93
 L 69.0822,-575.94 L 69.0811,-575.95 L 69.0811,-580.05 L 69.0822,-580.06 L 69.0855,-580.07 L 69.0907,-580.079
 L 69.0977,-580.087 L 69.1062,-580.093 L 69.1157,-580.098 L 69.1259,-580.1 L 69.1364,-580.1 L 69.1466,-580.098
 L 69.1561,-580.093 L 69.1646,-580.087 L 69.1716,-580.079 L 69.1768,-580.07 L 69.1801,-580.06 L 69.1812,-580.05
 L 69.1812,-575.95 L 69.1801,-575.94 L 69.1768,-575.93 L 69.1716,-575.921 L 69.1646,-575.913 L 69.1561,-575.907
 L 69.1466,-575.902 L 69.1364,-575.9 z
M 67.0782,-575.9 L 67.068,-575.902 L 67.0585,-575.907 L 67.05,-575.913 L 67.043,-575.921 L 67.0378,-575.93
 L 67.0345,-575.94 L 67.0335,-575.95 L 67.0335,-580.05 L 67.0345,-580.06 L 67.0378,-580.07 L 67.043,-580.079
 L 67.05,-580.087 L 67.0585,-580.093 L 67.068,-580.098 L 67.0782,-580.1 L 67.0887,-580.1 L 67.0989,-580.098
 L 67.1085,-580.093 L 67.1169,-580.087 L 67.1239,-580.079 L 67.1291,-580.07 L 67.1324,-580.06 L 67.1335,-580.05
 L 67.1335,-575.95 L 67.1324,-575.94 L 67.1291,-575.93 L 67.1239,-575.921 L 67.1169,-575.913 L 67.1085,-575.907
 L 67.0989,-575.902 L 67.0887,-575.9 z
M 65.0305,-575.9 L 65.0203,-575.902 L 65.0108,-575.907 L 65.0023,-575.913 L 64.9953,-575.921 L 64.9901,-575.93
 L 64.9869,-575.94 L 64.9858,-575.95 L 64.9858,-580.05 L 64.9869,-580.06 L 64.9901,-580.07 L 64.9953,-580.079
 L 65.0023,-580.087 L 65.0108,-580.093 L 65.0203,-580.098 L 65.0305,-580.1 L 65.041,-580.1 L 65.0512,-580.098
 L 65.0608,-580.093 L 65.0692,-580.087 L 65.0762,-580.079 L 65.0814,-580.07 L 65.0847,-580.06 L 65.0858,-580.05
 L 65.0858,-575.95 L 65.0847,-575.94 L 65.0814,-575.93 L 65.0762,-575.921 L 65.0692,-575.913 L 65.0608,-575.907
 L 65.0512,-575.902 L 65.041,-575.9 z
M 61.959,-573.2 L 61.9488,-573.202 L 61.9392,-573.207 L 61.9308,-573.213 L 61.9238,-573.221 L 61.9185,-573.23
 L 61.9153,-573.24 L 61.9142,-573.25 L 61.9142,-577.35 L 61.9153,-577.36 L 61.9185,-577.37 L 61.9238,-577.379
 L 61.9308,-577.387 L 61.9392,-577.393 L 61.9488,-577.398 L 61.959,-577.4 L 61.9695,-577.4 L 61.9797,-577.398
 L 61.9892,-577.393 L 61.9977,-577.387 L 62.0047,-577.379 L 62.0099,-577.37 L 62.0131,-577.36 L 62.0142,-577.35
 L 62.0142,-573.25 L 62.0131,-573.24 L 62.0099,-573.23 L 62.0047,-573.221 L 61.9977,-573.213 L 61.9892,-573.207
 L 61.9797,-573.202 L 61.9695,-573.2 z
M 68.1021,-573.2 L 68.0919,-573.202 L 68.0823,-573.207 L 68.0739,-573.213 L 68.0668,-573.221 L 68.0616,-573.23
 L 68.0584,-573.24 L 68.0573,-573.25 L 68.0573,-577.35 L 68.0584,-577.36 L 68.0616,-577.37 L 68.0668,-577.379
 L 68.0739,-577.387 L 68.0823,-577.393 L 68.0919,-577.398 L 68.1021,-577.4 L 68.1125,-577.4 L 68.1228,-577.398
 L 68.1323,-577.393 L 68.1408,-577.387 L 68.1478,-577.379 L 68.153,-577.37 L 68.1562,-577.36 L 68.1573,-577.35
 L 68.1573,-573.25 L 68.1562,-573.24 L 68.153,-573.23 L 68.1478,-573.221 L 68.1408,-573.213 L 68.1323,-573.207
 L 68.1228,-573.202 L 68.1125,-573.2 z
M 70.1498,-573.2 L 70.1395,-573.202 L 70.13,-573.207 L 70.1215,-573.213 L 70.1145,-573.221 L 70.1093,-573.23
 L 70.1061,-573.24 L 70.105,-573.25 L 70.105,-577.35 L 70.1061,-577.36 L 70.1093,-577.37 L 70.1145,-577.379
 L 70.1215,-577.387 L 70.13,-577.393 L 70.1395,-577.398 L 70.1498,-577.4 L 70.1602,-577.4 L 70.1704,-577.398
 L 70.18,-577.393 L 70.1884,-577.387 L 70.1954,-577.379 L 70.2,-577.371 L 70.2,-573.229 L 70.1954,-573.221
 L 70.1884,-573.213 L 70.18,-573.207 L 70.1704,-573.202 L 70.1602,-573.2 z
M 64.0067,-573.2 L 63.9965,-573.202 L 63.9869,-573.207 L 63.9785,-573.213 L 63.9715,-573.221 L 63.9662,-573.23
 L 63.963,-573.24 L 63.9619,-573.25 L 63.9619,-577.35 L 63.963,-577.36 L 63.9662,-577.37 L 63.9715,-577.379
 L 63.9785,-577.387 L 63.9869,-577.393 L 63.9965,-577.398 L 64.0067,-577.4 L 64.0172,-577.4 L 64.0274,-577.398
 L 64.0369,-577.393 L 64.0454,-577.387 L 64.0524,-577.379 L 64.0576,-577.37 L 64.0608,-577.36 L 64.0619,-577.35
 L 64.0619,-573.25 L 64.0608,-573.24 L 64.0576,-573.23 L 64.0524,-573.221 L 64.0454,-573.213 L 64.0369,-573.207
 L 64.0274,-573.202 L 64.0172,-573.2 z
M 59.9113,-573.2 L 59.9011,-573.202 L 59.8915,-573.207 L 59.8831,-573.213 L 59.8761,-573.221 L 59.8708,-573.23
 L 59.8676,-573.24 L 59.8665,-573.25 L 59.8665,-577.35 L 59.8676,-577.36 L 59.8708,-577.37 L 59.8761,-577.379
 L 59.8831,-577.387 L 59.8915,-577.393 L 59.9011,-577.398 L 59.9113,-577.4 L 59.9218,-577.4 L 59.932,-577.398
 L 59.9415,-577.393 L 59.95,-577.387 L 59.957,-577.379 L 59.9622,-577.37 L 59.9654,-577.36 L 59.9665,-577.35
 L 59.9665,-573.25 L 59.9654,-573.24 L 59.9622,-573.23 L 59.957,-573.221 L 59.95,-573.213 L 59.9415,-573.207
 L 59.932,-573.202 L 59.9218,-573.2 z
M 66.0544,-573.2 L 66.0442,-573.202 L 66.0346,-573.207 L 66.0262,-573.213 L 66.0192,-573.221 L 66.0139,-573.23
 L 66.0107,-573.24 L 66.0096,-573.25 L 66.0096,-577.35 L 66.0107,-577.36 L 66.0139,-577.37 L 66.0192,-577.379
 L 66.0262,-577.387 L 66.0346,-577.393 L 66.0442,-577.398 L 66.0544,-577.4 L 66.0648,-577.4 L 66.0751,-577.398
 L 66.0846,-577.393 L 66.0931,-577.387 L 66.1001,-577.379 L 66.1053,-577.37 L 66.1085,-577.36 L 66.1096,-577.35
 L 66.1096,-573.25 L 66.1085,-573.24 L 66.1053,-573.23 L 66.1001,-573.221 L 66.0931,-573.213 L 66.0846,-573.207
 L 66.0751,-573.202 L 66.0648,-573.2 z
M 88.6389,-397 L 88.6389,-402.75 L 100,-402.75 L 100,-520 L 5.75,-520 L 5.75,-508.568
 L 0,-508.568 L 0,-497.886 L 5.75,-497.886 L 5.75,-486.205 L 0,-486.205 L 0,-475.523
 L 5.75,-475.523 L 5.75,-463.841 L 0,-463.841 L 0,-453.159 L 5.75,-453.159 L 5.75,-441.477
 L 0,-441.477 L 0,-430.795 L 5.75,-430.795 L 5.75,-419.114 L 0,-419.114 L 0,-408.432
 L 5.75,-408.432 L 5.75,-402.75 L 11.3611,-402.75 L 11.3611,-397 L 21.9722,-397 L 21.9722,-402.75
 L 33.5833,-402.75 L 33.5833,-397 L 44.1944,-397 L 44.1944,-402.75 L 55.8055,-402.75 L 55.8055,-397
 L 66.4167,-397 L 66.4167,-402.75 L 78.0278,-402.75 L 78.0278,-397 z
M 76.45,-458.75 L 76.45,-464.25 L 89.75,-464.25 L 89.75,-458.75 z
M 111.288,-272 L 111.288,-277.75 L 145,-277.75 L 145,-395 L 0,-395 L 0,-389.25
 L 5.75,-389.25 L 5.75,-376.417 L 0,-376.417 L 0,-364.583 L 5.75,-364.583 L 5.75,-351.75
 L 0,-351.75 L 0,-339.917 L 5.75,-339.917 L 5.75,-327.083 L 0,-327.083 L 0,-315.25
 L 5.75,-315.25 L 5.75,-302.417 L 0,-302.417 L 0,-290.583 L 5.75,-290.583 L 5.75,-277.75
 L 11.4038,-277.75 L 11.4038,-272 L 22.0577,-272 L 22.0577,-277.75 L 33.7115,-277.75 L 33.7115,-272
 L 44.3654,-272 L 44.3654,-277.75 L 56.0192,-277.75 L 56.0192,-272 L 66.6731,-272 L 66.6731,-277.75
 L 78.3269,-277.75 L 78.3269,-272 L 88.9808,-272 L 88.9808,-277.75 L 100.635,-277.75 L 100.635,-272
 z
M 40.25,-372.886 L 40.25,-383.568 L 45.75,-383.568 L 45.75,-372.886 z
M 40.25,-350.523 L 40.25,-361.205 L 45.75,-361.205 L 45.75,-350.523 z
M 40.25,-328.159 L 40.25,-338.841 L 45.75,-338.841 L 45.75,-328.159 z
M 40.25,-305.795 L 40.25,-316.477 L 45.75,-316.477 L 45.75,-305.795 z
M 40.25,-283.432 L 40.25,-294.114 L 45.75,-294.114 L 45.75,-283.432 z
M 133.596,-277.75 L 122.942,-277.75 L 122.942,-272 L 133.596,-272 z
M 11.3611,-130.75 L 21.9722,-130.75 L 21.9722,-125 L 33.5833,-125 L 33.5833,-130.75 L 44.1944,-130.75
 L 44.1944,-125 L 55.8055,-125 L 55.8055,-130.75 L 66.4167,-130.75 L 66.4167,-125 L 78.0278,-125
 L 78.0278,-130.75 L 88.6389,-130.75 L 88.6389,-125 L 100,-125 L 100,-270 L 0,-270
 L 0,-258.596 L 5.75,-258.596 L 5.75,-247.942 L 0,-247.942 L 0,-236.288 L 5.75,-236.288
 L 5.75,-225.635 L 0,-225.635 L 0,-213.981 L 5.75,-213.981 L 5.75,-203.327 L 0,-203.327
 L 0,-191.673 L 5.75,-191.673 L 5.75,-181.019 L 0,-181.019 L 0,-169.365 L 5.75,-169.365
 L 5.75,-158.712 L 0,-158.712 L 0,-147.058 L 5.75,-147.058 L 5.75,-136.404 L 0,-136.404
 L 0,-125 L 11.3611,-125 z
M 30,-185.359 L 47.1132,-215 L 10,-215 L 10,-220 L 44.2265,-220 L 25.6699,-252.141
 L 30,-254.641 L 47.1132,-225 L 65.6699,-257.141 L 70,-254.641 L 52.8867,-225 L 90,-225
 L 90,-220 L 55.7735,-220 L 74.3301,-187.859 L 70,-185.359 L 52.8867,-215 L 34.3301,-182.859
 z
M 55.8055,-165.25 L 55.8055,-170.75 L 66.4167,-170.75 L 66.4167,-165.25 z
M 11.3611,-165.25 L 11.3611,-170.75 L 21.9722,-170.75 L 21.9722,-165.25 z
M 33.5833,-165.25 L 33.5833,-170.75 L 44.1944,-170.75 L 44.1944,-165.25 z
M 78.0278,-165.25 L 78.0278,-170.75 L 88.6389,-170.75 L 88.6389,-165.25 z
M 55.3056,-0 L 66.9167,-0 L 66.9167,-5.75 L 77.5278,-5.75 L 77.5278,-0 L 89.1389,-0
 L 89.1389,-5.75 L 100,-5.75 L 100,-123 L 5.75,-123 L 5.75,-117.25 L 0,-117.25
 L 0,-104.417 L 5.75,-104.417 L 5.75,-92.5833 L 0,-92.5833 L 0,-79.75 L 5.75,-79.75
 L 5.75,-67.9167 L 0,-67.9167 L 0,-55.0833 L 5.75,-55.0833 L 5.75,-43.25 L 0,-43.25
 L 0,-30.4167 L 5.75,-30.4167 L 5.75,-18.5833 L 0,-18.5833 L 0,-5.75 L 10.8611,-5.75
 L 10.8611,-0 L 22.4722,-0 L 22.4722,-5.75 L 33.0833,-5.75 L 33.0833,-0 L 44.6944,-0
 L 44.6944,-5.75 L 55.3056,-5.75 z
" stroke="black" fill="lightgray" stroke-width="0.5"/>
</svg>
